<svg xmlns="http://www.w3.org/2000/svg" xmlns:xlink="http://www.w3.org/1999/xlink" height="500.532" viewBox="0 0 1040 500.532" width="1040">
    <linearGradient id="a" gradientUnits="objectBoundingBox" x1=".5" x2=".5" y2="1">
        <stop offset="0" stop-color="#00aeef"></stop>
        <stop offset="1" stop-color="#3480e0"></stop>
    </linearGradient>
    <clipPath id="b">
        <path d="m566 4984h474v256h-474z"></path>
    </clipPath>
    <g transform="translate(0 -4739.943)">
        <path d="m0 0h1040v500.532h-1040z" fill="url(#a)" transform="matrix(-1 0 0 -1 1040 5240.476)"></path>
        <g clip-path="url(#b)">
            <path d="m1323.26 2177.664c-262.467 0-475.236 212.77-475.236 475.235s212.769 475.24 475.236 475.24 475.235-212.772 475.235-475.24-212.769-475.235-475.235-475.235zm0 806.881c-183.162 0-331.641-148.483-331.641-331.646s148.479-331.641 331.641-331.641 331.64 148.48 331.64 331.642-148.478 331.645-331.64 331.645z" fill="url(#a)" transform="matrix(-.5 .8660254 -.8660254 -.5 3967.353 5666.733)"></path>
        </g>
    </g>
</svg>